<?xml version="1.0" encoding="UTF-8" standalone="no"?>
<!DOCTYPE svg PUBLIC "-//W3C//DTD SVG 1.1//EN"
 "http://www.w3.org/Graphics/SVG/1.1/DTD/svg11.dtd">
<!-- Generated by graphviz version 2.43.0 (0)
 -->
<!-- Title: main Pages: 1 -->
<svg width="983pt" height="2096pt"
 viewBox="0.00 0.00 982.50 2096.00" xmlns="http://www.w3.org/2000/svg" xmlns:xlink="http://www.w3.org/1999/xlink">
<g id="graph0" class="graph" transform="scale(1 1) rotate(0) translate(4 2092)">
<title>main</title>
<polygon fill="white" stroke="transparent" points="-4,4 -4,-2092 978.5,-2092 978.5,4 -4,4"/>
<text text-anchor="middle" x="487.25" y="-7.8" font-family="Times,serif" font-size="14.00">main</text>
<!-- 722 -->
<g id="node1" class="node">
<title>722</title>
<polygon fill="green" stroke="black" points="380,-1996.5 380,-2042.5 575,-2042.5 575,-1996.5 380,-1996.5"/>
<text text-anchor="start" x="388" y="-2027.3" font-family="Times,serif" font-size="14.00">jal ra,29e8 &lt;start_time&gt;</text>
<polyline fill="none" stroke="black" points="380,-2019.5 575,-2019.5 "/>
<text text-anchor="middle" x="435" y="-2004.3" font-family="Times,serif" font-size="14.00">No Jump</text>
<polyline fill="none" stroke="black" points="490,-1996.5 490,-2019.5 "/>
<text text-anchor="middle" x="532.5" y="-2004.3" font-family="Times,serif" font-size="14.00">Jump</text>
</g>
<!-- 726 -->
<g id="node2" class="node">
<title>726</title>
<polygon fill="green" stroke="black" points="192.5,-1853.5 192.5,-1914.5 542.5,-1914.5 542.5,-1853.5 192.5,-1853.5"/>
<text text-anchor="start" x="200.5" y="-1899.3" font-family="Times,serif" font-size="14.00">nop</text>
<text text-anchor="start" x="200.5" y="-1884.3" font-family="Times,serif" font-size="14.00">blez s1,448 &lt;whetstones.constprop.0+0x3f8&gt;</text>
<polyline fill="none" stroke="black" points="192.5,-1876.5 542.5,-1876.5 "/>
<text text-anchor="middle" x="286" y="-1861.3" font-family="Times,serif" font-size="14.00">No Jump</text>
<polyline fill="none" stroke="black" points="379.5,-1853.5 379.5,-1876.5 "/>
<text text-anchor="middle" x="461" y="-1861.3" font-family="Times,serif" font-size="14.00">Jump</text>
</g>
<!-- 722&#45;&gt;726 -->
<g id="edge1" class="edge">
<title>722:s0&#45;&gt;726</title>
<path fill="none" stroke="black" d="M378.5,-2007.5C344.54,-2007.5 348.53,-1960.22 356.42,-1924.4"/>
<polygon fill="black" stroke="black" points="359.83,-1925.19 358.73,-1914.65 353.02,-1923.58 359.83,-1925.19"/>
</g>
<!-- 10728 -->
<g id="node9" class="node">
<title>10728</title>
<ellipse fill="none" stroke="black" cx="600.5" cy="-1884" rx="40.09" ry="18"/>
<text text-anchor="middle" x="600.5" y="-1880.3" font-family="Times,serif" font-size="14.00">10728</text>
</g>
<!-- 722&#45;&gt;10728 -->
<g id="edge2" class="edge">
<title>722:s1&#45;&gt;10728</title>
<path fill="none" stroke="black" d="M576.5,-2007.5C615.16,-2007.5 611.59,-1948.02 605.88,-1911.95"/>
<polygon fill="black" stroke="black" points="609.32,-1911.29 604.16,-1902.03 602.42,-1912.48 609.32,-1911.29"/>
</g>
<!-- 732 -->
<g id="node3" class="node">
<title>732</title>
<polygon fill="green" stroke="black" points="95.5,-1718.5 95.5,-1816.5 447.5,-1816.5 447.5,-1718.5 95.5,-1718.5"/>
<text text-anchor="start" x="103.5" y="-1801.3" font-family="Times,serif" font-size="14.00">fld fs5,8(sp)</text>
<text text-anchor="start" x="103.5" y="-1786.3" font-family="Times,serif" font-size="14.00">li s9,0</text>
<text text-anchor="start" x="103.5" y="-1771.3" font-family="Times,serif" font-size="14.00">auipc a2,0x201</text>
<text text-anchor="start" x="103.5" y="-1756.3" font-family="Times,serif" font-size="14.00">fld fa3,1768(a2) # 2019c8 &lt;__digits+0x1f8&gt;</text>
<text text-anchor="start" x="103.5" y="-1741.3" font-family="Times,serif" font-size="14.00">auipc a2,0x201</text>
<text text-anchor="start" x="103.5" y="-1726.3" font-family="Times,serif" font-size="14.00">fld fs10,1816(a2) # 201a00 &lt;__digits+0x230&gt;</text>
</g>
<!-- 726&#45;&gt;732 -->
<g id="edge3" class="edge">
<title>726:s0&#45;&gt;732</title>
<path fill="none" stroke="black" d="M285.5,-1853C285.5,-1844.45 284.79,-1835.48 283.7,-1826.7"/>
<polygon fill="black" stroke="black" points="287.13,-1825.94 282.25,-1816.53 280.19,-1826.93 287.13,-1825.94"/>
</g>
<!-- 1096 -->
<g id="node7" class="node">
<title>1096</title>
<polygon fill="none" stroke="black" points="233,-96.5 233,-142.5 420,-142.5 420,-96.5 233,-96.5"/>
<text text-anchor="start" x="241" y="-127.3" font-family="Times,serif" font-size="14.00">jal ra,2a10 &lt;end_time&gt;</text>
<polyline fill="none" stroke="black" points="233,-119.5 420,-119.5 "/>
<text text-anchor="middle" x="286" y="-104.3" font-family="Times,serif" font-size="14.00">No Jump</text>
<polyline fill="none" stroke="black" points="339,-96.5 339,-119.5 "/>
<text text-anchor="middle" x="379.5" y="-104.3" font-family="Times,serif" font-size="14.00">Jump</text>
</g>
<!-- 726&#45;&gt;1096 -->
<g id="edge4" class="edge">
<title>726:s1&#45;&gt;1096</title>
<path fill="none" stroke="black" d="M461.5,-1853C461.5,-1760.12 475.5,-1737.38 475.5,-1644.5 475.5,-1644.5 475.5,-1644.5 475.5,-929.5 475.5,-595.84 641.2,-456.88 456.5,-179 447.59,-165.6 434.83,-155.23 420.74,-147.22"/>
<polygon fill="black" stroke="black" points="422.3,-144.09 411.81,-142.54 419.04,-150.29 422.3,-144.09"/>
</g>
<!-- 752 -->
<g id="node4" class="node">
<title>752</title>
<polygon fill="green" stroke="black" points="228.5,-1625.5 228.5,-1661.5 314.5,-1661.5 314.5,-1625.5 228.5,-1625.5"/>
<text text-anchor="start" x="236.5" y="-1639.8" font-family="Times,serif" font-size="14.00">li ra,1400</text>
</g>
<!-- 732&#45;&gt;752 -->
<g id="edge5" class="edge">
<title>732&#45;&gt;752</title>
<path fill="none" stroke="black" d="M271.5,-1718.28C271.5,-1702.52 271.5,-1685.56 271.5,-1671.88"/>
<polygon fill="black" stroke="black" points="275,-1671.7 271.5,-1661.7 268,-1671.7 275,-1671.7"/>
</g>
<!-- 756 -->
<g id="node5" class="node">
<title>756</title>
<polygon fill="green" stroke="black" points="0,-292.5 0,-1568.5 353,-1568.5 353,-292.5 0,-292.5"/>
<text text-anchor="start" x="8" y="-1553.3" font-family="Times,serif" font-size="14.00">addi ra,ra,&#45;1</text>
<text text-anchor="start" x="8" y="-1538.3" font-family="Times,serif" font-size="14.00">fadd.d ft8,fs0,fs5</text>
<text text-anchor="start" x="8" y="-1523.3" font-family="Times,serif" font-size="14.00">fadd.d ft9,ft8,fs4</text>
<text text-anchor="start" x="8" y="-1508.3" font-family="Times,serif" font-size="14.00">fsub.d ft10,ft9,fs3</text>
<text text-anchor="start" x="8" y="-1493.3" font-family="Times,serif" font-size="14.00">fmadd.d fs0,ft10,fa3,fs0</text>
<text text-anchor="start" x="8" y="-1478.3" font-family="Times,serif" font-size="14.00">fsub.d ft11,fs0,fs4</text>
<text text-anchor="start" x="8" y="-1463.3" font-family="Times,serif" font-size="14.00">fadd.d ft0,ft11,fs3</text>
<text text-anchor="start" x="8" y="-1448.3" font-family="Times,serif" font-size="14.00">fmul.d ft1,ft0,fa3</text>
<text text-anchor="start" x="8" y="-1433.3" font-family="Times,serif" font-size="14.00">fmsub.d ft2,ft10,fa3,ft1</text>
<text text-anchor="start" x="8" y="-1418.3" font-family="Times,serif" font-size="14.00">fnmsub.d ft3,ft10,fa3,ft1</text>
<text text-anchor="start" x="8" y="-1403.3" font-family="Times,serif" font-size="14.00">fmadd.d fa4,ft10,fa3,ft1</text>
<text text-anchor="start" x="8" y="-1388.3" font-family="Times,serif" font-size="14.00">fadd.d fs4,ft2,fs4</text>
<text text-anchor="start" x="8" y="-1373.3" font-family="Times,serif" font-size="14.00">fadd.d ft4,fs4,fs3</text>
<text text-anchor="start" x="8" y="-1358.3" font-family="Times,serif" font-size="14.00">fmadd.d ft5,ft4,fa3,ft3</text>
<text text-anchor="start" x="8" y="-1343.3" font-family="Times,serif" font-size="14.00">fmadd.d fa5,ft4,fa3,fa4</text>
<text text-anchor="start" x="8" y="-1328.3" font-family="Times,serif" font-size="14.00">fadd.d fs3,ft5,fs3</text>
<text text-anchor="start" x="8" y="-1313.3" font-family="Times,serif" font-size="14.00">fnmsub.d fa2,fs3,fs10,fa5</text>
<text text-anchor="start" x="8" y="-1298.3" font-family="Times,serif" font-size="14.00">fmadd.d fs5,fa2,fa3,ft1</text>
<text text-anchor="start" x="8" y="-1283.3" font-family="Times,serif" font-size="14.00">fnmsub.d fa0,ft4,fa3,fs5</text>
<text text-anchor="start" x="8" y="-1268.3" font-family="Times,serif" font-size="14.00">fmadd.d ft6,fs3,fs10,fa0</text>
<text text-anchor="start" x="8" y="-1253.3" font-family="Times,serif" font-size="14.00">fmul.d ft7,ft6,fa3</text>
<text text-anchor="start" x="8" y="-1238.3" font-family="Times,serif" font-size="14.00">fmsub.d fa6,fa2,fa3,ft7</text>
<text text-anchor="start" x="8" y="-1223.3" font-family="Times,serif" font-size="14.00">fnmsub.d fa1,fa2,fa3,ft7</text>
<text text-anchor="start" x="8" y="-1208.3" font-family="Times,serif" font-size="14.00">fmadd.d fa7,fa2,fa3,ft7</text>
<text text-anchor="start" x="8" y="-1193.3" font-family="Times,serif" font-size="14.00">fmadd.d fs6,ft4,fa3,fa6</text>
<text text-anchor="start" x="8" y="-1178.3" font-family="Times,serif" font-size="14.00">fmadd.d fs7,fs3,fs10,fs6</text>
<text text-anchor="start" x="8" y="-1163.3" font-family="Times,serif" font-size="14.00">fmadd.d fs8,fs7,fa3,fa1</text>
<text text-anchor="start" x="8" y="-1148.3" font-family="Times,serif" font-size="14.00">fmadd.d fs9,fs7,fa3,fa7</text>
<text text-anchor="start" x="8" y="-1133.3" font-family="Times,serif" font-size="14.00">fmadd.d ft8,fs3,fs10,fs8</text>
<text text-anchor="start" x="8" y="-1118.3" font-family="Times,serif" font-size="14.00">fnmsub.d ft9,ft8,fs10,fs9</text>
<text text-anchor="start" x="8" y="-1103.3" font-family="Times,serif" font-size="14.00">fmadd.d ft10,ft9,fa3,ft7</text>
<text text-anchor="start" x="8" y="-1088.3" font-family="Times,serif" font-size="14.00">fnmsub.d fs0,fs7,fa3,ft10</text>
<text text-anchor="start" x="8" y="-1073.3" font-family="Times,serif" font-size="14.00">fmadd.d ft11,ft8,fs10,fs0</text>
<text text-anchor="start" x="8" y="-1058.3" font-family="Times,serif" font-size="14.00">fmul.d ft2,ft11,fa3</text>
<text text-anchor="start" x="8" y="-1043.3" font-family="Times,serif" font-size="14.00">fmsub.d ft1,ft9,fa3,ft2</text>
<text text-anchor="start" x="8" y="-1028.3" font-family="Times,serif" font-size="14.00">fnmsub.d ft0,ft9,fa3,ft2</text>
<text text-anchor="start" x="8" y="-1013.3" font-family="Times,serif" font-size="14.00">fmadd.d ft3,ft9,fa3,ft2</text>
<text text-anchor="start" x="8" y="-998.3" font-family="Times,serif" font-size="14.00">fmadd.d fa4,fs7,fa3,ft1</text>
<text text-anchor="start" x="8" y="-983.3" font-family="Times,serif" font-size="14.00">fmadd.d fs4,ft8,fs10,fa4</text>
<text text-anchor="start" x="8" y="-968.3" font-family="Times,serif" font-size="14.00">fmadd.d ft4,fs4,fa3,ft0</text>
<text text-anchor="start" x="8" y="-953.3" font-family="Times,serif" font-size="14.00">fmadd.d ft5,fs4,fa3,ft3</text>
<text text-anchor="start" x="8" y="-938.3" font-family="Times,serif" font-size="14.00">fmadd.d fs3,ft8,fs10,ft4</text>
<text text-anchor="start" x="8" y="-923.3" font-family="Times,serif" font-size="14.00">fnmsub.d fa2,fs3,fs10,ft5</text>
<text text-anchor="start" x="8" y="-908.3" font-family="Times,serif" font-size="14.00">fmadd.d fa5,fa2,fa3,ft2</text>
<text text-anchor="start" x="8" y="-893.3" font-family="Times,serif" font-size="14.00">fnmsub.d fs5,fs4,fa3,fa5</text>
<text text-anchor="start" x="8" y="-878.3" font-family="Times,serif" font-size="14.00">fmadd.d fa0,fs3,fs10,fs5</text>
<text text-anchor="start" x="8" y="-863.3" font-family="Times,serif" font-size="14.00">fmul.d ft6,fa0,fa3</text>
<text text-anchor="start" x="8" y="-848.3" font-family="Times,serif" font-size="14.00">fmsub.d ft7,fa2,fa3,ft6</text>
<text text-anchor="start" x="8" y="-833.3" font-family="Times,serif" font-size="14.00">fnmsub.d fa6,fa2,fa3,ft6</text>
<text text-anchor="start" x="8" y="-818.3" font-family="Times,serif" font-size="14.00">fmadd.d fa1,fa2,fa3,ft6</text>
<text text-anchor="start" x="8" y="-803.3" font-family="Times,serif" font-size="14.00">fmadd.d fa7,fs4,fa3,ft7</text>
<text text-anchor="start" x="8" y="-788.3" font-family="Times,serif" font-size="14.00">fmadd.d fs6,fs3,fs10,fa7</text>
<text text-anchor="start" x="8" y="-773.3" font-family="Times,serif" font-size="14.00">fmadd.d fs7,fs6,fa3,fa6</text>
<text text-anchor="start" x="8" y="-758.3" font-family="Times,serif" font-size="14.00">fmadd.d fs8,fs6,fa3,fa1</text>
<text text-anchor="start" x="8" y="-743.3" font-family="Times,serif" font-size="14.00">fmadd.d fs9,fs3,fs10,fs7</text>
<text text-anchor="start" x="8" y="-728.3" font-family="Times,serif" font-size="14.00">fnmsub.d ft8,fs9,fs10,fs8</text>
<text text-anchor="start" x="8" y="-713.3" font-family="Times,serif" font-size="14.00">fmadd.d ft9,ft8,fa3,ft6</text>
<text text-anchor="start" x="8" y="-698.3" font-family="Times,serif" font-size="14.00">fnmsub.d ft10,fs6,fa3,ft9</text>
<text text-anchor="start" x="8" y="-683.3" font-family="Times,serif" font-size="14.00">fmadd.d fs0,fs9,fs10,ft10</text>
<text text-anchor="start" x="8" y="-668.3" font-family="Times,serif" font-size="14.00">fmul.d ft11,fs0,fa3</text>
<text text-anchor="start" x="8" y="-653.3" font-family="Times,serif" font-size="14.00">fmsub.d ft2,ft8,fa3,ft11</text>
<text text-anchor="start" x="8" y="-638.3" font-family="Times,serif" font-size="14.00">fnmsub.d ft1,ft8,fa3,ft11</text>
<text text-anchor="start" x="8" y="-623.3" font-family="Times,serif" font-size="14.00">fmadd.d ft3,ft8,fa3,ft11</text>
<text text-anchor="start" x="8" y="-608.3" font-family="Times,serif" font-size="14.00">fmadd.d ft0,fs6,fa3,ft2</text>
<text text-anchor="start" x="8" y="-593.3" font-family="Times,serif" font-size="14.00">fmadd.d fs4,fs9,fs10,ft0</text>
<text text-anchor="start" x="8" y="-578.3" font-family="Times,serif" font-size="14.00">fmadd.d ft4,fs4,fa3,ft1</text>
<text text-anchor="start" x="8" y="-563.3" font-family="Times,serif" font-size="14.00">fmadd.d fa4,fs4,fa3,ft3</text>
<text text-anchor="start" x="8" y="-548.3" font-family="Times,serif" font-size="14.00">fmadd.d ft5,fs9,fs10,ft4</text>
<text text-anchor="start" x="8" y="-533.3" font-family="Times,serif" font-size="14.00">fnmsub.d fs3,ft5,fs10,fa4</text>
<text text-anchor="start" x="8" y="-518.3" font-family="Times,serif" font-size="14.00">fmul.d fs5,fa3,fs3</text>
<text text-anchor="start" x="8" y="-503.3" font-family="Times,serif" font-size="14.00">fadd.d fa2,ft11,fs5</text>
<text text-anchor="start" x="8" y="-488.3" font-family="Times,serif" font-size="14.00">fnmsub.d fa5,fs4,fa3,fa2</text>
<text text-anchor="start" x="8" y="-473.3" font-family="Times,serif" font-size="14.00">fmadd.d fa0,ft5,fs10,fa5</text>
<text text-anchor="start" x="8" y="-458.3" font-family="Times,serif" font-size="14.00">fmul.d fs0,fa3,fa0</text>
<text text-anchor="start" x="8" y="-443.3" font-family="Times,serif" font-size="14.00">fsub.d ft6,fs5,fs0</text>
<text text-anchor="start" x="8" y="-428.3" font-family="Times,serif" font-size="14.00">fsub.d ft7,fs0,fs5</text>
<text text-anchor="start" x="8" y="-413.3" font-family="Times,serif" font-size="14.00">fmadd.d fa6,fs4,fa3,ft6</text>
<text text-anchor="start" x="8" y="-398.3" font-family="Times,serif" font-size="14.00">fmadd.d fa1,ft5,fs10,fa6</text>
<text text-anchor="start" x="8" y="-383.3" font-family="Times,serif" font-size="14.00">fmul.d fs4,fa3,fa1</text>
<text text-anchor="start" x="8" y="-368.3" font-family="Times,serif" font-size="14.00">fadd.d fa7,ft7,fs4</text>
<text text-anchor="start" x="8" y="-353.3" font-family="Times,serif" font-size="14.00">fmadd.d fs6,ft5,fs10,fa7</text>
<text text-anchor="start" x="8" y="-338.3" font-family="Times,serif" font-size="14.00">fmul.d fs3,fs6,fs10</text>
<text text-anchor="start" x="8" y="-323.3" font-family="Times,serif" font-size="14.00">bnez ra,2f4 &lt;whetstones.constprop.0+0x2a4&gt;</text>
<polyline fill="none" stroke="black" points="0,-315.5 353,-315.5 "/>
<text text-anchor="middle" x="94.5" y="-300.3" font-family="Times,serif" font-size="14.00">No Jump</text>
<polyline fill="none" stroke="black" points="189,-292.5 189,-315.5 "/>
<text text-anchor="middle" x="271" y="-300.3" font-family="Times,serif" font-size="14.00">Jump</text>
</g>
<!-- 752&#45;&gt;756 -->
<g id="edge6" class="edge">
<title>752&#45;&gt;756</title>
<path fill="none" stroke="black" d="M269.2,-1625.28C267.73,-1614.25 265.6,-1598.31 262.96,-1578.57"/>
<polygon fill="black" stroke="black" points="266.42,-1578.02 261.62,-1568.57 259.48,-1578.95 266.42,-1578.02"/>
</g>
<!-- 756&#45;&gt;756 -->
<g id="edge8" class="edge">
<title>756:s1&#45;&gt;756</title>
<path fill="none" stroke="black" d="M275.64,-292.28C337.81,-125.73 371,-136.06 371,-617 371,-723.61 364.9,-807.1 354.68,-870.66"/>
<polygon fill="black" stroke="black" points="351.2,-870.25 353.01,-880.69 358.11,-871.4 351.2,-870.25"/>
</g>
<!-- 1086 -->
<g id="node6" class="node">
<title>1086</title>
<polygon fill="green" stroke="black" points="79.5,-179.5 79.5,-255.5 447.5,-255.5 447.5,-179.5 79.5,-179.5"/>
<text text-anchor="start" x="87.5" y="-240.3" font-family="Times,serif" font-size="14.00">addi s9,s9,1</text>
<text text-anchor="start" x="87.5" y="-225.3" font-family="Times,serif" font-size="14.00">fsub.d fa3,fs1,fa3</text>
<text text-anchor="start" x="87.5" y="-210.3" font-family="Times,serif" font-size="14.00">bne s1,s9,2f0 &lt;whetstones.constprop.0+0x2a0&gt;</text>
<polyline fill="none" stroke="black" points="79.5,-202.5 447.5,-202.5 "/>
<text text-anchor="middle" x="177.5" y="-187.3" font-family="Times,serif" font-size="14.00">No Jump</text>
<polyline fill="none" stroke="black" points="275.5,-179.5 275.5,-202.5 "/>
<text text-anchor="middle" x="361.5" y="-187.3" font-family="Times,serif" font-size="14.00">Jump</text>
</g>
<!-- 756&#45;&gt;1086 -->
<g id="edge7" class="edge">
<title>756:s0&#45;&gt;1086</title>
<path fill="none" stroke="black" d="M94.5,-292C94.5,-280.96 97.57,-271.56 102.89,-263.56"/>
<polygon fill="black" stroke="black" points="105.66,-265.7 109.2,-255.71 100.2,-261.31 105.66,-265.7"/>
</g>
<!-- 1086&#45;&gt;752 -->
<g id="edge10" class="edge">
<title>1086:s1&#45;&gt;752</title>
<path fill="none" stroke="black" d="M448.5,-190.5C486.84,-190.5 398.3,-1535.59 379.5,-1569 366.8,-1591.57 343.94,-1608.63 322.52,-1620.6"/>
<polygon fill="black" stroke="black" points="320.64,-1617.64 313.45,-1625.42 323.93,-1623.82 320.64,-1617.64"/>
</g>
<!-- 1086&#45;&gt;1096 -->
<g id="edge9" class="edge">
<title>1086:s0&#45;&gt;1096</title>
<path fill="none" stroke="black" d="M177.5,-179C177.5,-152.76 197.76,-137.92 223.34,-129.64"/>
<polygon fill="black" stroke="black" points="224.33,-133 232.98,-126.88 222.4,-126.27 224.33,-133"/>
</g>
<!-- end_of_function -->
<g id="node8" class="node">
<title>end_of_function</title>
<polygon fill="none" stroke="black" points="210.5,-23.5 210.5,-59.5 334.5,-59.5 334.5,-23.5 210.5,-23.5"/>
<text text-anchor="start" x="218.5" y="-37.8" font-family="Times,serif" font-size="14.00">end of function</text>
</g>
<!-- 1096&#45;&gt;end_of_function -->
<g id="edge11" class="edge">
<title>1096:s0&#45;&gt;end_of_function</title>
<path fill="none" stroke="black" d="M285.5,-96C285.5,-87.17 283.81,-77.74 281.64,-69.29"/>
<polygon fill="black" stroke="black" points="284.98,-68.23 278.85,-59.59 278.25,-70.17 284.98,-68.23"/>
</g>
<!-- 10768 -->
<g id="node10" class="node">
<title>10768</title>
<ellipse fill="none" stroke="black" cx="392.5" cy="-41.5" rx="40.09" ry="18"/>
<text text-anchor="middle" x="392.5" y="-37.8" font-family="Times,serif" font-size="14.00">10768</text>
</g>
<!-- 1096&#45;&gt;10768 -->
<g id="edge12" class="edge">
<title>1096:s1&#45;&gt;10768</title>
<path fill="none" stroke="black" d="M379.5,-96C379.5,-87.17 381.19,-77.74 383.36,-69.29"/>
<polygon fill="black" stroke="black" points="386.75,-70.17 386.15,-59.59 380.02,-68.23 386.75,-70.17"/>
</g>
<!-- 65712 -->
<g id="node11" class="node">
<title>65712</title>
<polygon fill="none" stroke="black" points="658.5,-1951.5 658.5,-2087.5 974.5,-2087.5 974.5,-1951.5 658.5,-1951.5"/>
<text text-anchor="start" x="666.5" y="-2072.3" font-family="Times,serif" font-size="14.00">addi sp,sp,&#45;16</text>
<text text-anchor="start" x="666.5" y="-2057.3" font-family="Times,serif" font-size="14.00">sd s0,0(sp)</text>
<text text-anchor="start" x="666.5" y="-2042.3" font-family="Times,serif" font-size="14.00">lui s0,0x1c</text>
<text text-anchor="start" x="666.5" y="-2027.3" font-family="Times,serif" font-size="14.00">li a1,10</text>
<text text-anchor="start" x="666.5" y="-2012.3" font-family="Times,serif" font-size="14.00">addi a0,s0,624 # 1c270 &lt;__clzdi2+0x3c&gt;</text>
<text text-anchor="start" x="666.5" y="-1997.3" font-family="Times,serif" font-size="14.00">sd ra,8(sp)</text>
<text text-anchor="start" x="666.5" y="-1982.3" font-family="Times,serif" font-size="14.00">jal ra,102da &lt;printf&gt;</text>
<polyline fill="none" stroke="black" points="658.5,-1974.5 974.5,-1974.5 "/>
<text text-anchor="middle" x="743.5" y="-1959.3" font-family="Times,serif" font-size="14.00">No Jump</text>
<polyline fill="none" stroke="black" points="828.5,-1951.5 828.5,-1974.5 "/>
<text text-anchor="middle" x="901.5" y="-1959.3" font-family="Times,serif" font-size="14.00">Jump</text>
</g>
<!-- 65730 -->
<g id="node12" class="node">
<title>65730</title>
<polygon fill="none" stroke="black" points="659.5,-1853.5 659.5,-1914.5 827.5,-1914.5 827.5,-1853.5 659.5,-1853.5"/>
<text text-anchor="start" x="667.5" y="-1899.3" font-family="Times,serif" font-size="14.00">li a0,10</text>
<text text-anchor="start" x="667.5" y="-1884.3" font-family="Times,serif" font-size="14.00">jal ra,10182 &lt;test2&gt;</text>
<polyline fill="none" stroke="black" points="659.5,-1876.5 827.5,-1876.5 "/>
<text text-anchor="middle" x="707.5" y="-1861.3" font-family="Times,serif" font-size="14.00">No Jump</text>
<polyline fill="none" stroke="black" points="755.5,-1853.5 755.5,-1876.5 "/>
<text text-anchor="middle" x="791.5" y="-1861.3" font-family="Times,serif" font-size="14.00">Jump</text>
</g>
<!-- 65712&#45;&gt;65730 -->
<g id="edge13" class="edge">
<title>65712:s0&#45;&gt;65730</title>
<path fill="none" stroke="black" d="M743.5,-1951C743.5,-1942.53 743.5,-1933.44 743.5,-1924.81"/>
<polygon fill="black" stroke="black" points="747,-1924.57 743.5,-1914.57 740,-1924.57 747,-1924.57"/>
</g>
<!-- 66266 -->
<g id="node16" class="node">
<title>66266</title>
<ellipse fill="none" stroke="black" cx="766.5" cy="-930.5" rx="40.09" ry="18"/>
<text text-anchor="middle" x="766.5" y="-926.8" font-family="Times,serif" font-size="14.00">66266</text>
</g>
<!-- 65712&#45;&gt;66266 -->
<g id="edge14" class="edge">
<title>65712:s1&#45;&gt;66266</title>
<path fill="none" stroke="black" d="M901.5,-1951C901.5,-1553.22 799.25,-1075.63 772.72,-958.43"/>
<polygon fill="black" stroke="black" points="776.1,-957.49 770.47,-948.52 769.28,-959.05 776.1,-957.49"/>
</g>
<!-- 65736 -->
<g id="node13" class="node">
<title>65736</title>
<polygon fill="none" stroke="black" points="604,-1729.5 604,-1805.5 775,-1805.5 775,-1729.5 604,-1729.5"/>
<text text-anchor="start" x="612" y="-1790.3" font-family="Times,serif" font-size="14.00">mv a1,a0</text>
<text text-anchor="start" x="612" y="-1775.3" font-family="Times,serif" font-size="14.00">addi a0,s0,624</text>
<text text-anchor="start" x="612" y="-1760.3" font-family="Times,serif" font-size="14.00">jal ra,102da &lt;printf&gt;</text>
<polyline fill="none" stroke="black" points="604,-1752.5 775,-1752.5 "/>
<text text-anchor="middle" x="653" y="-1737.3" font-family="Times,serif" font-size="14.00">No Jump</text>
<polyline fill="none" stroke="black" points="702,-1729.5 702,-1752.5 "/>
<text text-anchor="middle" x="738.5" y="-1737.3" font-family="Times,serif" font-size="14.00">Jump</text>
</g>
<!-- 65730&#45;&gt;65736 -->
<g id="edge15" class="edge">
<title>65730:s0&#45;&gt;65736</title>
<path fill="none" stroke="black" d="M707.5,-1853C707.5,-1840.7 705.65,-1827.6 703.14,-1815.48"/>
<polygon fill="black" stroke="black" points="706.52,-1814.56 700.9,-1805.58 699.69,-1816.1 706.52,-1814.56"/>
</g>
<!-- 65922 -->
<g id="node17" class="node">
<title>65922</title>
<ellipse fill="none" stroke="black" cx="833.5" cy="-1767.5" rx="40.09" ry="18"/>
<text text-anchor="middle" x="833.5" y="-1763.8" font-family="Times,serif" font-size="14.00">65922</text>
</g>
<!-- 65730&#45;&gt;65922 -->
<g id="edge16" class="edge">
<title>65730:s1&#45;&gt;65922</title>
<path fill="none" stroke="black" d="M791.5,-1853C791.5,-1831.02 803.03,-1808.87 814.01,-1792.77"/>
<polygon fill="black" stroke="black" points="816.98,-1794.64 819.98,-1784.48 811.3,-1790.55 816.98,-1794.64"/>
</g>
<!-- 65746 -->
<g id="node14" class="node">
<title>65746</title>
<polygon fill="none" stroke="black" points="567,-1605.5 567,-1681.5 738,-1681.5 738,-1605.5 567,-1605.5"/>
<text text-anchor="start" x="575" y="-1666.3" font-family="Times,serif" font-size="14.00">addi a0,s0,624</text>
<text text-anchor="start" x="575" y="-1651.3" font-family="Times,serif" font-size="14.00">li a1,10</text>
<text text-anchor="start" x="575" y="-1636.3" font-family="Times,serif" font-size="14.00">jal ra,102da &lt;printf&gt;</text>
<polyline fill="none" stroke="black" points="567,-1628.5 738,-1628.5 "/>
<text text-anchor="middle" x="616" y="-1613.3" font-family="Times,serif" font-size="14.00">No Jump</text>
<polyline fill="none" stroke="black" points="665,-1605.5 665,-1628.5 "/>
<text text-anchor="middle" x="701.5" y="-1613.3" font-family="Times,serif" font-size="14.00">Jump</text>
</g>
<!-- 65736&#45;&gt;65746 -->
<g id="edge17" class="edge">
<title>65736:s0&#45;&gt;65746</title>
<path fill="none" stroke="black" d="M652.5,-1728.5C652.5,-1716.66 652.5,-1703.87 652.5,-1691.94"/>
<polygon fill="black" stroke="black" points="656,-1691.72 652.5,-1681.72 649,-1691.72 656,-1691.72"/>
</g>
<!-- 65736&#45;&gt;66266 -->
<g id="edge18" class="edge">
<title>65736:s1&#45;&gt;66266</title>
<path fill="none" stroke="black" d="M738.5,-1728.5C738.5,-1707.53 744.44,-1702.87 746.5,-1682 774.3,-1400.67 769.35,-1057.33 767.19,-959"/>
<polygon fill="black" stroke="black" points="770.68,-958.65 766.95,-948.74 763.68,-958.81 770.68,-958.65"/>
</g>
<!-- 65756 -->
<g id="node15" class="node">
<title>65756</title>
<polygon fill="none" stroke="black" points="559.5,-889 559.5,-972 671.5,-972 671.5,-889 559.5,-889"/>
<text text-anchor="start" x="567.5" y="-956.8" font-family="Times,serif" font-size="14.00">ld ra,8(sp)</text>
<text text-anchor="start" x="567.5" y="-941.8" font-family="Times,serif" font-size="14.00">ld s0,0(sp)</text>
<text text-anchor="start" x="567.5" y="-926.8" font-family="Times,serif" font-size="14.00">li a0,0</text>
<text text-anchor="start" x="567.5" y="-911.8" font-family="Times,serif" font-size="14.00">addi sp,sp,16</text>
<text text-anchor="start" x="567.5" y="-896.8" font-family="Times,serif" font-size="14.00">ret</text>
</g>
<!-- 65746&#45;&gt;65756 -->
<g id="edge19" class="edge">
<title>65746:s0&#45;&gt;65756</title>
<path fill="none" stroke="black" d="M615.5,-1605C615.5,-1372.27 615.5,-1094.31 615.5,-982.13"/>
<polygon fill="black" stroke="black" points="619,-982.12 615.5,-972.12 612,-982.12 619,-982.12"/>
</g>
<!-- 65746&#45;&gt;66266 -->
<g id="edge20" class="edge">
<title>65746:s1&#45;&gt;66266</title>
<path fill="none" stroke="black" d="M701.5,-1605C701.5,-1352.71 747.25,-1049.71 761.98,-958.65"/>
<polygon fill="black" stroke="black" points="765.47,-959.05 763.62,-948.61 758.56,-957.92 765.47,-959.05"/>
</g>
</g>
</svg>
